<svg width="118" height="38" viewBox="0 0 118 38" fill="none" xmlns="http://www.w3.org/2000/svg" role="img" aria-label="Website">
  <rect x="0" y="0" width="118" height="38" rx="19.0" fill="#0360CA"/>
  <g transform="translate(17.00,10.50) scale(0.06641)" fill="#ffffff"><path d="M128,24h0A104,104,0,1,0,232,128,104.12,104.12,0,0,0,128,24Zm78.36,64H170.71a135.28,135.28,0,0,0-22.3-45.6A88.29,88.29,0,0,1,206.37,88ZM216,128a87.61,87.61,0,0,1-3.33,24H174.16a157.44,157.44,0,0,0,0-48h38.51A87.61,87.61,0,0,1,216,128ZM128,43a115.27,115.27,0,0,1,26,45H102A115.11,115.11,0,0,1,128,43ZM102,168H154a115.11,115.11,0,0,1-26,45A115.27,115.27,0,0,1,102,168Zm-3.9-16a140.84,140.84,0,0,1,0-48h59.88a140.84,140.84,0,0,1,0,48Zm50.35,61.6a135.28,135.28,0,0,0,22.3-45.6h35.66A88.29,88.29,0,0,1,148.41,213.6Z"/></g>
  <g transform="translate(42.52,24.20) scale(1,-1)" fill="#ffffff"><path d="M1.94 0.0L0.48 10.5L2.26 10.5L3.41 1.24L3.66 1.24L5.13 10.5L8.26 10.5L9.74 1.24L9.99 1.24L11.11 10.5L12.91 10.5L11.44 0.0L8.31 0.0L6.82 9.44L6.57 9.44L5.07 0.0L1.94 0.0ZM17.87 -0.21Q16.75 -0.21 15.91 0.26Q15.06 0.74 14.59 1.6Q14.12 2.46 14.12 3.61L14.12 3.79Q14.12 4.96 14.58 5.82Q15.04 6.68 15.88 7.15Q16.72 7.62 17.82 7.62Q18.9 7.62 19.71 7.15Q20.52 6.68 20.97 5.82Q21.42 4.96 21.42 3.82L21.42 3.21L15.85 3.21Q15.89 2.34 16.47 1.81Q17.05 1.29 17.91 1.29Q18.75 1.29 19.15 1.66Q19.56 2.02 19.77 2.49L21.19 1.76Q20.99 1.35 20.59 0.89Q20.19 0.44 19.53 0.11Q18.87 -0.21 17.87 -0.21ZM15.87 4.51L19.67 4.51Q19.6 5.25 19.1 5.68Q18.6 6.12 17.8 6.12Q16.98 6.12 16.49 5.68Q15.99 5.25 15.87 4.51ZM27.57 -0.21Q26.52 -0.21 25.96 0.16Q25.39 0.52 25.14 0.98L24.88 0.98L24.88 0.0L23.19 0.0L23.19 10.5L24.91 10.5L24.91 6.48L25.17 6.48Q25.33 6.78 25.63 7.03Q25.92 7.29 26.39 7.45Q26.86 7.62 27.57 7.62Q28.48 7.62 29.25 7.18Q30.01 6.74 30.48 5.88Q30.94 5.02 30.94 3.82L30.94 3.59Q30.94 2.39 30.48 1.53Q30.01 0.68 29.24 0.23Q28.47 -0.21 27.57 -0.21ZM27.06 1.29Q27.99 1.29 28.6 1.9Q29.22 2.51 29.22 3.63L29.22 3.78Q29.22 4.92 28.61 5.52Q28.01 6.12 27.06 6.12Q26.13 6.12 25.51 5.52Q24.88 4.92 24.88 3.78L24.88 3.63Q24.88 2.51 25.51 1.9Q26.13 1.29 27.06 1.29ZM35.84 -0.21Q34.39 -0.21 33.46 0.42Q32.54 1.05 32.34 2.26L33.93 2.67Q34.04 2.1 34.3 1.77Q34.57 1.44 34.97 1.3Q35.37 1.17 35.84 1.17Q36.54 1.17 36.89 1.42Q37.24 1.68 37.24 2.07Q37.24 2.48 36.91 2.67Q36.57 2.86 35.88 3.0L35.42 3.08Q34.65 3.22 34.02 3.49Q33.39 3.75 33.01 4.21Q32.62 4.66 32.62 5.37Q32.62 6.45 33.43 7.03Q34.23 7.62 35.54 7.62Q36.78 7.62 37.59 7.06Q38.4 6.51 38.64 5.58L37.05 5.1Q36.93 5.73 36.52 5.99Q36.12 6.26 35.54 6.26Q34.94 6.26 34.61 6.04Q34.29 5.84 34.29 5.44Q34.29 5.06 34.62 4.86Q34.95 4.66 35.5 4.58L35.97 4.49Q36.79 4.34 37.46 4.09Q38.13 3.86 38.52 3.41Q38.91 2.96 38.91 2.19Q38.91 1.04 38.08 0.41Q37.24 -0.21 35.84 -0.21ZM40.65 0.0L40.65 7.41L42.37 7.41L42.37 0.0L40.65 0.0ZM41.51 8.36Q41.04 8.36 40.71 8.66Q40.37 8.97 40.37 9.48Q40.37 9.99 40.71 10.3Q41.04 10.61 41.51 10.61Q42.0 10.61 42.33 10.3Q42.65 9.99 42.65 9.48Q42.65 8.97 42.33 8.66Q42.0 8.36 41.51 8.36ZM47.38 0.0Q46.66 0.0 46.24 0.43Q45.81 0.86 45.81 1.59L45.81 5.99L43.88 5.99L43.88 7.41L45.81 7.41L45.81 9.79L47.53 9.79L47.53 7.41L49.66 7.41L49.66 5.99L47.53 5.99L47.53 1.88Q47.53 1.42 47.96 1.42L49.44 1.42L49.44 0.0L47.38 0.0ZM54.81 -0.21Q53.7 -0.21 52.85 0.26Q52.01 0.74 51.53 1.6Q51.06 2.46 51.06 3.61L51.06 3.79Q51.06 4.96 51.52 5.82Q51.99 6.68 52.83 7.15Q53.67 7.62 54.76 7.62Q55.84 7.62 56.65 7.15Q57.46 6.68 57.91 5.82Q58.36 4.96 58.36 3.82L58.36 3.21L52.8 3.21Q52.83 2.34 53.41 1.81Q54.0 1.29 54.86 1.29Q55.69 1.29 56.1 1.66Q56.51 2.02 56.71 2.49L58.14 1.76Q57.93 1.35 57.53 0.89Q57.14 0.44 56.47 0.11Q55.81 -0.21 54.81 -0.21ZM52.81 4.51L56.61 4.51Q56.55 5.25 56.05 5.68Q55.54 6.12 54.75 6.12Q53.92 6.12 53.43 5.68Q52.94 5.25 52.81 4.51Z"/></g>
</svg>