<svg width="96" height="38" viewBox="0 0 96 38" fill="none" xmlns="http://www.w3.org/2000/svg" role="img" aria-label="Email">
  <rect x="0" y="0" width="96" height="38" rx="19.0" fill="#0360CA"/>
  <g transform="translate(17.00,10.50) scale(0.06641)" fill="#ffffff"><path d="M224,48H32a8,8,0,0,0-8,8V192a16,16,0,0,0,16,16H216a16,16,0,0,0,16-16V56A8,8,0,0,0,224,48Zm-8,144H40V74.19l82.59,75.71a8,8,0,0,0,10.82,0L216,74.19V192Z"/></g>
  <g transform="translate(41.96,24.20) scale(1,-1)" fill="#ffffff"><path d="M1.04 0.0L1.04 10.5L7.72 10.5L7.72 8.86L2.85 8.86L2.85 6.11L7.31 6.11L7.31 4.47L2.85 4.47L2.85 1.64L7.8 1.64L7.8 0.0L1.04 0.0ZM9.43 0.0L9.43 7.41L11.13 7.41L11.13 6.59L11.38 6.59Q11.58 6.96 12.04 7.25Q12.5 7.54 13.26 7.54Q14.07 7.54 14.56 7.21Q15.06 6.89 15.31 6.38L15.55 6.38Q15.81 6.89 16.29 7.21Q16.77 7.54 17.65 7.54Q18.35 7.54 18.91 7.24Q19.47 6.94 19.81 6.36Q20.15 5.78 20.15 4.91L20.15 0.0L18.42 0.0L18.42 4.79Q18.42 5.43 18.07 5.77Q17.73 6.11 17.11 6.11Q16.44 6.11 16.04 5.66Q15.65 5.22 15.65 4.39L15.65 0.0L13.93 0.0L13.93 4.79Q13.93 5.43 13.59 5.77Q13.25 6.11 12.63 6.11Q11.94 6.11 11.55 5.66Q11.16 5.22 11.16 4.39L11.16 0.0L9.43 0.0ZM24.55 -0.21Q23.78 -0.21 23.15 0.07Q22.51 0.34 22.15 0.87Q21.78 1.39 21.78 2.16Q21.78 2.91 22.15 3.42Q22.51 3.93 23.16 4.19Q23.8 4.46 24.63 4.46L26.78 4.46L26.78 4.91Q26.78 5.49 26.41 5.86Q26.05 6.22 25.29 6.22Q24.54 6.22 24.16 5.87Q23.78 5.52 23.65 4.96L22.06 5.49Q22.25 6.08 22.64 6.56Q23.04 7.04 23.7 7.33Q24.36 7.62 25.32 7.62Q26.78 7.62 27.61 6.89Q28.44 6.16 28.44 4.79L28.44 1.88Q28.44 1.42 28.86 1.42L29.49 1.42L29.49 0.0L28.28 0.0Q27.73 0.0 27.39 0.27Q27.05 0.54 27.05 1.01L27.05 1.04L26.79 1.04Q26.7 0.82 26.48 0.52Q26.25 0.22 25.79 0.01Q25.33 -0.21 24.55 -0.21ZM24.84 1.2Q25.7 1.2 26.23 1.69Q26.78 2.17 26.78 3.0L26.78 3.15L24.73 3.15Q24.18 3.15 23.83 2.91Q23.49 2.67 23.49 2.21Q23.49 1.76 23.85 1.48Q24.21 1.2 24.84 1.2ZM30.91 0.0L30.91 7.41L32.64 7.41L32.64 0.0L30.91 0.0ZM31.77 8.36Q31.31 8.36 30.97 8.66Q30.63 8.97 30.63 9.48Q30.63 9.99 30.97 10.3Q31.31 10.61 31.77 10.61Q32.27 10.61 32.59 10.3Q32.91 9.99 32.91 9.48Q32.91 8.97 32.59 8.66Q32.27 8.36 31.77 8.36ZM34.83 0.0L34.83 10.5L36.55 10.5L36.55 0.0L34.83 0.0Z"/></g>
</svg>