<svg width="636" height="142" viewBox="0 0 636 142" fill="none" xmlns="http://www.w3.org/2000/svg" role="img" aria-label="Hi, I'm Mijael Mardonez. Full Stack Web Developer and Solo founder.">
  <g transform="translate(31.81,25.95) scale(0.21094)" fill="#3170ae"><path d="M220.17,100,202.86,70a28,28,0,0,0-38.24-10.25,27.69,27.69,0,0,0-9,8.34L138.2,38a28,28,0,0,0-48.48,0A28,28,0,0,0,48.15,74l1.59,2.76A27.67,27.67,0,0,0,38,80.41a28,28,0,0,0-10.24,38.25l40,69.32a87.47,87.47,0,0,0,53.43,41,88.56,88.56,0,0,0,22.92,3,88,88,0,0,0,76.06-132Zm-6.66,62.64A72,72,0,0,1,81.62,180l-40-69.32a12,12,0,0,1,20.78-12L81.63,132a8,8,0,1,0,13.85-8L62,66A12,12,0,1,1,82.78,54L114,108a8,8,0,1,0,13.85-8L103.57,58h0a12,12,0,1,1,20.78-12l33.42,57.9a48,48,0,0,0-5.54,60.6,8,8,0,0,0,13.24-9A32,32,0,0,1,172.78,112a8,8,0,0,0,2.13-10.4L168.23,90A12,12,0,1,1,189,78l17.31,30A71.56,71.56,0,0,1,213.51,162.62ZM184.25,31.71A8,8,0,0,1,194,26a59.62,59.62,0,0,1,36.53,28l.33.57a8,8,0,1,1-13.85,8l-.33-.57a43.67,43.67,0,0,0-26.8-20.5A8,8,0,0,1,184.25,31.71ZM80.89,237a8,8,0,0,1-11.23,1.33A119.56,119.56,0,0,1,40.06,204a8,8,0,0,1,13.86-8,103.67,103.67,0,0,0,25.64,29.72A8,8,0,0,1,80.89,237Z"/></g>
  <g transform="translate(100.63,64.70) scale(1,-1)" fill="#3170ae"><path d="M3.18 0.0L3.18 32.2L8.74 32.2L8.74 18.67L21.43 18.67L21.43 32.2L27.0 32.2L27.0 0.0L21.43 0.0L21.43 13.61L8.74 13.61L8.74 0.0L3.18 0.0ZM33.53 0.0L33.53 22.73L38.82 22.73L38.82 0.0L33.53 0.0ZM36.17 25.62Q34.74 25.62 33.71 26.56Q32.67 27.51 32.67 29.07Q32.67 30.63 33.71 31.57Q34.74 32.52 36.17 32.52Q37.69 32.52 38.67 31.57Q39.66 30.63 39.66 29.07Q39.66 27.51 38.67 26.56Q37.69 25.62 36.17 25.62ZM45.77 -6.53L45.77 -3.59L47.47 -3.59Q49.45 -3.59 49.45 -1.61L49.45 -0.14L48.72 -0.14Q47.01 -0.14 45.86 0.9Q44.71 1.93 44.71 3.54Q44.71 5.25 45.86 6.32Q47.01 7.4 48.72 7.4Q50.46 7.4 51.56 6.3Q52.67 5.2 52.67 3.41L52.67 -1.65Q52.67 -6.53 47.84 -6.53L45.77 -6.53ZM70.15 0.0L70.15 32.2L75.72 32.2L75.72 0.0L70.15 0.0ZM82.48 18.77L82.48 21.71L84.18 21.71Q86.16 21.71 86.16 23.69L86.16 25.16L85.42 25.16Q83.72 25.16 82.57 26.2Q81.42 27.23 81.42 28.84Q81.42 30.55 82.57 31.62Q83.72 32.7 85.42 32.7Q87.17 32.7 88.27 31.6Q89.38 30.5 89.38 28.71L89.38 23.65Q89.38 18.77 84.55 18.77L82.48 18.77ZM95.31 0.0L95.31 22.73L100.51 22.73L100.51 20.2L101.29 20.2Q101.89 21.35 103.29 22.24Q104.7 23.14 107.04 23.14Q109.53 23.14 111.04 22.12Q112.56 21.12 113.34 19.55L114.08 19.55Q114.86 21.12 116.33 22.12Q117.81 23.14 120.52 23.14Q122.64 23.14 124.36 22.22Q126.09 21.3 127.12 19.5Q128.16 17.71 128.16 15.04L128.16 0.0L122.87 0.0L122.87 14.68Q122.87 16.65 121.8 17.69Q120.75 18.72 118.86 18.72Q116.79 18.72 115.57 17.37Q114.36 16.01 114.36 13.48L114.36 0.0L109.11 0.0L109.11 14.68Q109.11 16.65 108.05 17.69Q107.0 18.72 105.11 18.72Q102.99 18.72 101.79 17.37Q100.6 16.01 100.6 13.48L100.6 0.0L95.31 0.0ZM146.19 0.0L146.19 32.2L156.54 32.2L162.79 3.72L163.58 3.72L169.88 32.2L180.18 32.2L180.18 0.0L174.85 0.0L174.85 28.2L174.06 28.2L167.81 0.0L158.61 0.0L152.35 28.2L151.57 28.2L151.57 0.0L146.19 0.0ZM186.76 0.0L186.76 22.73L192.05 22.73L192.05 0.0L186.76 0.0ZM189.4 25.62Q187.97 25.62 186.93 26.56Q185.9 27.51 185.9 29.07Q185.9 30.63 186.93 31.57Q187.97 32.52 189.4 32.52Q190.91 32.52 191.9 31.57Q192.89 30.63 192.89 29.07Q192.89 27.51 191.9 26.56Q190.91 25.62 189.4 25.62ZM194.49 -9.2L194.49 -4.64L197.57 -4.64Q198.86 -4.64 198.86 -3.26L198.86 22.73L204.15 22.73L204.15 -4.33Q204.15 -6.58 202.83 -7.88Q201.52 -9.2 199.32 -9.2L194.49 -9.2ZM201.46 25.62Q200.03 25.62 198.99 26.56Q197.96 27.51 197.96 29.07Q197.96 30.63 198.99 31.57Q200.03 32.52 201.46 32.52Q202.98 32.52 203.96 31.57Q204.95 30.63 204.95 29.07Q204.95 27.51 203.96 26.56Q202.98 25.62 201.46 25.62ZM217.9 -0.65Q215.51 -0.65 213.58 0.2Q211.65 1.06 210.52 2.67Q209.39 4.28 209.39 6.63Q209.39 8.93 210.52 10.49Q211.65 12.05 213.62 12.86Q215.6 13.66 218.13 13.66L224.71 13.66L224.71 15.04Q224.71 16.83 223.61 17.96Q222.5 19.09 220.16 19.09Q217.86 19.09 216.68 18.0Q215.51 16.93 215.14 15.22L210.27 16.83Q210.82 18.63 212.03 20.1Q213.26 21.58 215.28 22.47Q217.3 23.37 220.25 23.37Q224.71 23.37 227.26 21.13Q229.82 18.9 229.82 14.68L229.82 5.75Q229.82 4.37 231.1 4.37L233.04 4.37L233.04 0.0L229.31 0.0Q227.65 0.0 226.6 0.83Q225.54 1.65 225.54 3.08L225.54 3.18L224.76 3.18Q224.48 2.53 223.79 1.61Q223.1 0.69 221.69 0.02Q220.29 -0.65 217.9 -0.65ZM218.78 3.68Q221.4 3.68 223.05 5.18Q224.71 6.67 224.71 9.2L224.71 9.66L218.45 9.66Q216.75 9.66 215.69 8.92Q214.64 8.19 214.64 6.76Q214.64 5.38 215.74 4.53Q216.84 3.68 218.78 3.68ZM247.8 -0.65Q244.4 -0.65 241.8 0.8Q239.2 2.26 237.75 4.9Q236.3 7.55 236.3 11.08L236.3 11.64Q236.3 15.22 237.73 17.85Q239.15 20.47 241.72 21.91Q244.3 23.37 247.66 23.37Q250.97 23.37 253.45 21.91Q255.94 20.47 257.32 17.85Q258.7 15.22 258.7 11.73L258.7 9.85L241.64 9.85Q241.73 7.17 243.52 5.56Q245.32 3.95 247.94 3.95Q250.51 3.95 251.76 5.08Q253.0 6.21 253.64 7.63L258.01 5.38Q257.37 4.14 256.15 2.74Q254.93 1.34 252.91 0.34Q250.88 -0.65 247.8 -0.65ZM241.68 13.84L253.32 13.84Q253.14 16.1 251.59 17.43Q250.05 18.77 247.62 18.77Q245.09 18.77 243.57 17.43Q242.05 16.1 241.68 13.84ZM264.13 0.0L264.13 32.2L269.42 32.2L269.42 0.0L264.13 0.0ZM287.69 0.0L287.69 32.2L298.04 32.2L304.29 3.72L305.07 3.72L311.38 32.2L321.68 32.2L321.68 0.0L316.34 0.0L316.34 28.2L315.56 28.2L309.31 0.0L300.11 0.0L293.85 28.2L293.06 28.2L293.06 0.0L287.69 0.0ZM335.29 -0.65Q332.9 -0.65 330.97 0.2Q329.04 1.06 327.91 2.67Q326.78 4.28 326.78 6.63Q326.78 8.93 327.91 10.49Q329.04 12.05 331.01 12.86Q332.99 13.66 335.52 13.66L342.1 13.66L342.1 15.04Q342.1 16.83 341.0 17.96Q339.89 19.09 337.55 19.09Q335.25 19.09 334.08 18.0Q332.9 16.93 332.53 15.22L327.66 16.83Q328.21 18.63 329.43 20.1Q330.65 21.58 332.67 22.47Q334.69 23.37 337.64 23.37Q342.1 23.37 344.66 21.13Q347.21 18.9 347.21 14.68L347.21 5.75Q347.21 4.37 348.49 4.37L350.43 4.37L350.43 0.0L346.7 0.0Q345.04 0.0 343.99 0.83Q342.93 1.65 342.93 3.08L342.93 3.18L342.15 3.18Q341.87 2.53 341.18 1.61Q340.49 0.69 339.09 0.02Q337.68 -0.65 335.29 -0.65ZM336.17 3.68Q338.79 3.68 340.44 5.18Q342.1 6.67 342.1 9.2L342.1 9.66L335.84 9.66Q334.14 9.66 333.08 8.92Q332.03 8.19 332.03 6.76Q332.03 5.38 333.13 4.53Q334.23 3.68 336.17 3.68ZM354.8 0.0L354.8 22.73L359.99 22.73L359.99 20.1L360.78 20.1Q361.29 21.53 362.48 22.17Q363.67 22.81 365.33 22.81L368.09 22.81L368.09 18.13L365.24 18.13Q362.94 18.13 361.51 16.9Q360.09 15.68 360.09 13.15L360.09 0.0L354.8 0.0ZM382.08 -0.65Q379.32 -0.65 376.92 0.71Q374.53 2.07 373.11 4.69Q371.68 7.32 371.68 11.0L371.68 11.73Q371.68 15.41 373.11 18.03Q374.53 20.66 376.9 22.01Q379.27 23.37 382.08 23.37Q384.19 23.37 385.66 22.86Q387.14 22.35 388.03 21.57Q388.93 20.79 389.44 19.87L390.22 19.87L390.22 32.2L395.46 32.2L395.46 0.0L390.31 0.0L390.31 2.99L389.53 2.99Q388.7 1.61 387.0 0.48Q385.3 -0.65 382.08 -0.65ZM383.64 3.95Q386.49 3.95 388.37 5.81Q390.26 7.68 390.26 11.13L390.26 11.59Q390.26 15.09 388.4 16.93Q386.54 18.77 383.64 18.77Q380.79 18.77 378.88 16.93Q376.97 15.09 376.97 11.59L376.97 11.13Q376.97 7.68 378.88 5.81Q380.79 3.95 383.64 3.95ZM412.94 -0.65Q409.54 -0.65 406.84 0.75Q404.15 2.16 402.61 4.76Q401.08 7.36 401.08 11.0L401.08 11.73Q401.08 15.37 402.61 17.98Q404.15 20.61 406.84 21.99Q409.54 23.37 412.94 23.37Q416.34 23.37 419.01 21.99Q421.68 20.61 423.22 17.98Q424.77 15.37 424.77 11.73L424.77 11.0Q424.77 7.36 423.22 4.76Q421.68 2.16 419.01 0.75Q416.34 -0.65 412.94 -0.65ZM412.94 4.05Q415.84 4.05 417.68 5.91Q419.52 7.78 419.52 11.13L419.52 11.59Q419.52 14.95 417.68 16.81Q415.84 18.67 412.94 18.67Q410.05 18.67 408.21 16.81Q406.37 14.95 406.37 11.59L406.37 11.13Q406.37 7.78 408.21 5.91Q410.05 4.05 412.94 4.05ZM430.37 0.0L430.37 22.73L435.57 22.73L435.57 19.55L436.35 19.55Q436.95 20.84 438.52 21.99Q440.08 23.14 443.25 23.14Q445.88 23.14 447.9 21.94Q449.92 20.74 451.05 18.63Q452.18 16.52 452.18 13.61L452.18 0.0L446.89 0.0L446.89 13.2Q446.89 15.96 445.53 17.31Q444.17 18.67 441.69 18.67Q438.88 18.67 437.27 16.81Q435.66 14.95 435.66 11.5L435.66 0.0L430.37 0.0ZM469.06 -0.65Q465.66 -0.65 463.06 0.8Q460.46 2.26 459.01 4.9Q457.56 7.55 457.56 11.08L457.56 11.64Q457.56 15.22 458.99 17.85Q460.41 20.47 462.98 21.91Q465.56 23.37 468.92 23.37Q472.23 23.37 474.71 21.91Q477.2 20.47 478.58 17.85Q479.96 15.22 479.96 11.73L479.96 9.85L462.9 9.85Q462.99 7.17 464.78 5.56Q466.58 3.95 469.2 3.95Q471.77 3.95 473.02 5.08Q474.26 6.21 474.9 7.63L479.27 5.38Q478.63 4.14 477.41 2.74Q476.19 1.34 474.17 0.34Q472.14 -0.65 469.06 -0.65ZM462.94 13.84L474.58 13.84Q474.4 16.1 472.85 17.43Q471.31 18.77 468.88 18.77Q466.35 18.77 464.83 17.43Q463.31 16.1 462.94 13.84ZM484.52 0.0L484.52 6.35L497.49 17.67L497.49 18.36L484.98 18.36L484.98 22.73L503.19 22.73L503.19 16.37L490.22 5.06L490.22 4.37L503.56 4.37L503.56 0.0L484.52 0.0Z"/></g>
  <g transform="translate(118.82,106.50) scale(1,-1)" fill="#3170ae"><path d="M1.5 0.0L1.5 12.43L8.99 12.43L8.99 10.73L3.28 10.73L3.28 7.02L8.55 7.02L8.55 5.32L3.32 5.32L3.32 0.0L1.5 0.0ZM15.28 -0.17Q13.6 -0.17 12.6 0.81Q11.59 1.78 11.59 3.47L11.59 9.35L13.43 9.35L13.43 3.47Q13.43 2.5 13.92 1.96Q14.42 1.43 15.28 1.43Q16.17 1.43 16.67 1.96Q17.17 2.5 17.17 3.47L17.17 9.35L19.01 9.35L19.01 3.47Q19.01 1.78 17.99 0.81Q16.98 -0.17 15.28 -0.17ZM26.84 0.0Q25.98 0.0 25.33 0.35Q24.68 0.7 24.32 1.34Q23.95 1.99 23.95 2.84L23.95 10.74L20.89 10.74L20.89 12.41L25.79 12.41L25.79 2.84Q25.79 2.3 26.09 1.98Q26.4 1.67 26.93 1.67L29.82 1.67L29.82 0.0L26.84 0.0ZM37.04 0.0Q36.18 0.0 35.53 0.35Q34.88 0.7 34.52 1.34Q34.15 1.99 34.15 2.84L34.15 10.74L31.09 10.74L31.09 12.41L35.99 12.41L35.99 2.84Q35.99 2.3 36.29 1.98Q36.6 1.67 37.13 1.67L40.02 1.67L40.02 0.0L37.04 0.0ZM56.15 -0.17Q54.89 -0.17 53.99 0.25Q53.09 0.66 52.6 1.44Q52.1 2.21 52.1 3.28L53.92 3.28Q53.92 2.43 54.52 1.94Q55.11 1.46 56.17 1.46Q57.15 1.46 57.71 1.94Q58.28 2.41 58.28 3.25Q58.28 3.94 57.89 4.45Q57.51 4.96 56.8 5.15L55.23 5.61Q53.87 6.0 53.13 6.94Q52.39 7.89 52.39 9.2Q52.39 10.22 52.85 10.98Q53.31 11.75 54.16 12.17Q55.01 12.6 56.17 12.6Q57.87 12.6 58.9 11.68Q59.92 10.76 59.94 9.21L58.11 9.21Q58.11 10.03 57.59 10.5Q57.07 10.97 56.13 10.97Q55.23 10.97 54.72 10.53Q54.21 10.1 54.21 9.32Q54.21 8.62 54.6 8.11Q54.98 7.6 55.69 7.4L57.27 6.92Q58.63 6.55 59.36 5.59Q60.09 4.64 60.09 3.32Q60.09 2.28 59.6 1.49Q59.11 0.7 58.22 0.26Q57.34 -0.17 56.15 -0.17ZM67.32 0.0Q66.04 0.0 65.33 0.7Q64.62 1.39 64.62 2.64L64.62 7.68L62.03 7.68L62.03 9.35L64.62 9.35L64.62 11.99L66.45 11.99L66.45 9.35L70.11 9.35L70.11 7.68L66.45 7.68L66.45 2.64Q66.45 1.67 67.39 1.67L69.94 1.67L69.94 0.0L67.32 0.0ZM75.56 -0.17Q74.1 -0.17 73.26 0.59Q72.42 1.34 72.42 2.65Q72.42 3.98 73.31 4.73Q74.2 5.49 75.77 5.49L78.37 5.49L78.37 6.36Q78.37 7.12 77.89 7.55Q77.42 7.97 76.55 7.97Q75.79 7.97 75.28 7.64Q74.77 7.31 74.68 6.77L72.88 6.77Q73.03 8.02 74.04 8.77Q75.05 9.52 76.6 9.52Q78.27 9.52 79.24 8.68Q80.21 7.84 80.21 6.39L80.21 0.0L78.42 0.0L78.42 1.72L78.11 1.72L78.42 2.06Q78.42 1.04 77.64 0.43Q76.86 -0.17 75.56 -0.17ZM76.11 1.24Q77.09 1.24 77.73 1.74Q78.37 2.24 78.37 3.03L78.37 4.25L75.8 4.25Q75.09 4.25 74.67 3.86Q74.26 3.47 74.26 2.79Q74.26 2.07 74.75 1.66Q75.24 1.24 76.11 1.24ZM86.77 -0.17Q85.61 -0.17 84.73 0.26Q83.86 0.7 83.39 1.52Q82.93 2.35 82.93 3.45L82.93 5.9Q82.93 7.02 83.39 7.84Q83.86 8.65 84.73 9.09Q85.61 9.52 86.77 9.52Q88.45 9.52 89.47 8.64Q90.49 7.75 90.54 6.22L88.71 6.22Q88.65 7.02 88.14 7.46Q87.63 7.9 86.77 7.9Q85.83 7.9 85.29 7.39Q84.74 6.87 84.74 5.92L84.74 3.45Q84.74 2.5 85.29 1.97Q85.83 1.44 86.77 1.44Q87.63 1.44 88.14 1.89Q88.65 2.33 88.71 3.13L90.54 3.13Q90.49 1.6 89.47 0.71Q88.45 -0.17 86.77 -0.17ZM93.28 0.0L93.28 12.41L95.11 12.41L95.11 5.59L96.76 5.59L99.25 9.35L101.32 9.35L98.34 4.86L101.37 0.0L99.26 0.0L96.76 4.01L95.11 4.01L95.11 0.0L93.28 0.0ZM113.9 0.0L112.56 12.41L114.21 12.41L115.04 3.5Q115.07 3.16 115.1 2.75Q115.12 2.35 115.15 1.96Q115.17 1.56 115.17 1.28Q115.21 1.56 115.24 1.96Q115.28 2.35 115.32 2.75Q115.36 3.16 115.41 3.5L116.48 12.41L118.18 12.41L119.19 3.5Q119.22 3.16 119.26 2.75Q119.31 2.35 119.36 1.96Q119.41 1.56 119.42 1.28Q119.44 1.56 119.47 1.96Q119.49 2.35 119.53 2.75Q119.56 3.16 119.59 3.5L120.44 12.41L122.04 12.41L120.65 0.0L118.52 0.0L117.52 9.03Q117.49 9.38 117.45 9.78Q117.42 10.18 117.38 10.57Q117.35 10.95 117.32 11.2Q117.3 10.95 117.27 10.57Q117.23 10.18 117.2 9.78Q117.16 9.38 117.11 9.03L116.04 0.0L113.9 0.0ZM127.5 -0.17Q126.36 -0.17 125.5 0.28Q124.64 0.73 124.18 1.55Q123.73 2.36 123.73 3.45L123.73 5.9Q123.73 7.0 124.18 7.81Q124.64 8.62 125.5 9.07Q126.36 9.52 127.5 9.52Q128.66 9.52 129.51 9.07Q130.36 8.62 130.81 7.81Q131.27 7.0 131.27 5.9L131.27 4.23L125.49 4.23L125.49 3.45Q125.49 2.41 126.01 1.87Q126.53 1.33 127.52 1.33Q128.32 1.33 128.81 1.6Q129.3 1.89 129.42 2.43L131.24 2.43Q131.04 1.24 130.02 0.53Q129.0 -0.17 127.5 -0.17ZM129.51 5.34L129.51 5.92Q129.51 6.94 129.0 7.5Q128.49 8.06 127.5 8.06Q126.53 8.06 126.01 7.5Q125.49 6.94 125.49 5.9L125.49 5.47L129.64 5.49L129.51 5.34ZM138.36 -0.17Q137.21 -0.17 136.53 0.47Q135.85 1.1 135.85 2.21L136.24 1.78L135.85 1.78L135.85 0.0L134.03 0.0L134.03 12.41L135.86 12.41L135.86 9.74L135.81 7.56L136.24 7.56L135.85 7.14Q135.85 8.25 136.53 8.88Q137.22 9.52 138.36 9.52Q139.77 9.52 140.62 8.57Q141.47 7.62 141.47 5.98L141.47 3.35Q141.47 1.73 140.62 0.78Q139.77 -0.17 138.36 -0.17ZM137.73 1.43Q138.63 1.43 139.14 1.95Q139.65 2.47 139.65 3.45L139.65 5.9Q139.65 6.89 139.14 7.4Q138.63 7.92 137.73 7.92Q136.87 7.92 136.36 7.38Q135.86 6.85 135.86 5.9L135.86 3.45Q135.86 2.5 136.36 1.96Q136.87 1.43 137.73 1.43ZM154.41 0.0L154.41 12.41L157.88 12.41Q159.1 12.41 160.0 11.94Q160.9 11.48 161.41 10.62Q161.91 9.78 161.91 8.62L161.91 3.81Q161.91 2.67 161.41 1.8Q160.9 0.94 160.0 0.47Q159.1 0.0 157.88 0.0L154.41 0.0ZM156.25 1.67L157.88 1.67Q158.9 1.67 159.48 2.23Q160.07 2.8 160.07 3.81L160.07 8.62Q160.07 9.6 159.48 10.17Q158.9 10.74 157.88 10.74L156.25 10.74L156.25 1.67ZM168.3 -0.17Q167.16 -0.17 166.3 0.28Q165.44 0.73 164.98 1.55Q164.53 2.36 164.53 3.45L164.53 5.9Q164.53 7.0 164.98 7.81Q165.44 8.62 166.3 9.07Q167.16 9.52 168.3 9.52Q169.46 9.52 170.31 9.07Q171.16 8.62 171.61 7.81Q172.07 7.0 172.07 5.9L172.07 4.23L166.29 4.23L166.29 3.45Q166.29 2.41 166.81 1.87Q167.33 1.33 168.32 1.33Q169.12 1.33 169.61 1.6Q170.1 1.89 170.22 2.43L172.04 2.43Q171.84 1.24 170.82 0.53Q169.8 -0.17 168.3 -0.17ZM170.31 5.34L170.31 5.92Q170.31 6.94 169.8 7.5Q169.29 8.06 168.3 8.06Q167.33 8.06 166.81 7.5Q166.29 6.94 166.29 5.9L166.29 5.47L170.44 5.49L170.31 5.34ZM177.29 0.0L174.2 9.35L176.07 9.35L177.99 3.37Q178.18 2.84 178.32 2.3Q178.47 1.77 178.53 1.46Q178.62 1.77 178.76 2.3Q178.91 2.84 179.06 3.37L180.95 9.35L182.8 9.35L179.71 0.0L177.29 0.0ZM188.7 -0.17Q187.56 -0.17 186.7 0.28Q185.84 0.73 185.38 1.55Q184.93 2.36 184.93 3.45L184.93 5.9Q184.93 7.0 185.38 7.81Q185.84 8.62 186.7 9.07Q187.56 9.52 188.7 9.52Q189.86 9.52 190.71 9.07Q191.56 8.62 192.01 7.81Q192.47 7.0 192.47 5.9L192.47 4.23L186.69 4.23L186.69 3.45Q186.69 2.41 187.21 1.87Q187.73 1.33 188.72 1.33Q189.52 1.33 190.01 1.6Q190.5 1.89 190.62 2.43L192.44 2.43Q192.24 1.24 191.22 0.53Q190.2 -0.17 188.7 -0.17ZM190.71 5.34L190.71 5.92Q190.71 6.94 190.2 7.5Q189.69 8.06 188.7 8.06Q187.73 8.06 187.21 7.5Q186.69 6.94 186.69 5.9L186.69 5.47L190.84 5.49L190.71 5.34ZM200.24 0.0Q199.38 0.0 198.73 0.35Q198.08 0.7 197.72 1.34Q197.35 1.99 197.35 2.84L197.35 10.74L194.29 10.74L194.29 12.41L199.19 12.41L199.19 2.84Q199.19 2.3 199.49 1.98Q199.8 1.67 200.33 1.67L203.22 1.67L203.22 0.0L200.24 0.0ZM209.1 -0.15Q207.94 -0.15 207.09 0.29Q206.24 0.73 205.78 1.55Q205.33 2.36 205.33 3.47L205.33 5.88Q205.33 7.0 205.78 7.81Q206.24 8.62 207.09 9.06Q207.94 9.5 209.1 9.5Q210.26 9.5 211.11 9.06Q211.96 8.62 212.41 7.81Q212.87 7.0 212.87 5.88L212.87 3.47Q212.87 2.36 212.41 1.55Q211.96 0.73 211.11 0.29Q210.26 -0.15 209.1 -0.15ZM209.1 1.46Q210.03 1.46 210.54 1.98Q211.05 2.5 211.05 3.47L211.05 5.88Q211.05 6.87 210.54 7.38Q210.03 7.89 209.1 7.89Q208.18 7.89 207.66 7.38Q207.14 6.87 207.14 5.88L207.14 3.47Q207.14 2.5 207.66 1.98Q208.18 1.46 209.1 1.46ZM215.63 -3.06L215.63 9.35L217.45 9.35L217.45 7.56L217.84 7.56L217.45 7.14Q217.45 8.25 218.13 8.88Q218.82 9.52 219.98 9.52Q221.39 9.52 222.23 8.58Q223.07 7.63 223.07 6.0L223.07 3.37Q223.07 2.28 222.69 1.49Q222.31 0.7 221.62 0.26Q220.93 -0.17 219.98 -0.17Q218.84 -0.17 218.14 0.47Q217.45 1.1 217.45 2.21L217.84 1.78L217.41 1.78L217.46 -0.39L217.46 -3.06L215.63 -3.06ZM219.35 1.43Q220.25 1.43 220.75 1.95Q221.25 2.47 221.25 3.45L221.25 5.9Q221.25 6.89 220.75 7.4Q220.25 7.92 219.35 7.92Q218.48 7.92 217.97 7.38Q217.46 6.85 217.46 5.9L217.46 3.45Q217.46 2.5 217.97 1.96Q218.48 1.43 219.35 1.43ZM229.5 -0.17Q228.36 -0.17 227.5 0.28Q226.64 0.73 226.18 1.55Q225.73 2.36 225.73 3.45L225.73 5.9Q225.73 7.0 226.18 7.81Q226.64 8.62 227.5 9.07Q228.36 9.52 229.5 9.52Q230.66 9.52 231.51 9.07Q232.36 8.62 232.81 7.81Q233.27 7.0 233.27 5.9L233.27 4.23L227.49 4.23L227.49 3.45Q227.49 2.41 228.01 1.87Q228.53 1.33 229.52 1.33Q230.32 1.33 230.81 1.6Q231.3 1.89 231.42 2.43L233.24 2.43Q233.04 1.24 232.02 0.53Q231.0 -0.17 229.5 -0.17ZM231.51 5.34L231.51 5.92Q231.51 6.94 231.0 7.5Q230.49 8.06 229.5 8.06Q228.53 8.06 228.01 7.5Q227.49 6.94 227.49 5.9L227.49 5.47L231.64 5.49L231.51 5.34ZM236.33 0.0L236.33 9.35L238.1 9.35L238.1 7.56L238.54 7.56L237.98 6.46Q237.98 7.97 238.65 8.75Q239.31 9.52 240.62 9.52Q242.11 9.52 242.99 8.59Q243.86 7.67 243.86 6.05L243.86 5.42L241.98 5.42L241.98 5.9Q241.98 6.9 241.48 7.44Q240.97 7.97 240.07 7.97Q239.17 7.97 238.67 7.43Q238.17 6.89 238.17 5.9L238.17 0.0L236.33 0.0ZM260.1 4.42Q259.42 4.42 259.01 4.82Q258.6 5.22 258.6 5.9Q258.6 6.6 259.01 7.01Q259.42 7.43 260.1 7.43Q260.8 7.43 261.19 7.01Q261.6 6.6 261.6 5.9Q261.6 5.22 261.19 4.82Q260.8 4.42 260.1 4.42ZM280.55 -0.17Q279.29 -0.17 278.39 0.25Q277.49 0.66 277.0 1.44Q276.5 2.21 276.5 3.28L278.32 3.28Q278.32 2.43 278.92 1.94Q279.51 1.46 280.57 1.46Q281.55 1.46 282.11 1.94Q282.68 2.41 282.68 3.25Q282.68 3.94 282.29 4.45Q281.91 4.96 281.2 5.15L279.63 5.61Q278.27 6.0 277.53 6.94Q276.79 7.89 276.79 9.2Q276.79 10.22 277.25 10.98Q277.71 11.75 278.56 12.17Q279.41 12.6 280.57 12.6Q282.27 12.6 283.3 11.68Q284.32 10.76 284.34 9.21L282.51 9.21Q282.51 10.03 281.99 10.5Q281.47 10.97 280.53 10.97Q279.63 10.97 279.12 10.53Q278.61 10.1 278.61 9.32Q278.61 8.62 279.0 8.11Q279.38 7.6 280.09 7.4L281.67 6.92Q283.03 6.55 283.76 5.59Q284.49 4.64 284.49 3.32Q284.49 2.28 284.0 1.49Q283.51 0.7 282.62 0.26Q281.74 -0.17 280.55 -0.17ZM290.7 -0.15Q289.54 -0.15 288.69 0.29Q287.84 0.73 287.38 1.55Q286.93 2.36 286.93 3.47L286.93 5.88Q286.93 7.0 287.38 7.81Q287.84 8.62 288.69 9.06Q289.54 9.5 290.7 9.5Q291.86 9.5 292.71 9.06Q293.56 8.62 294.01 7.81Q294.47 7.0 294.47 5.88L294.47 3.47Q294.47 2.36 294.01 1.55Q293.56 0.73 292.71 0.29Q291.86 -0.15 290.7 -0.15ZM290.7 1.46Q291.63 1.46 292.14 1.98Q292.65 2.5 292.65 3.47L292.65 5.88Q292.65 6.87 292.14 7.38Q291.63 7.89 290.7 7.89Q289.78 7.89 289.26 7.38Q288.74 6.87 288.74 5.88L288.74 3.47Q288.74 2.5 289.26 1.98Q289.78 1.46 290.7 1.46ZM302.24 0.0Q301.38 0.0 300.73 0.35Q300.08 0.7 299.72 1.34Q299.35 1.99 299.35 2.84L299.35 10.74L296.29 10.74L296.29 12.41L301.19 12.41L301.19 2.84Q301.19 2.3 301.49 1.98Q301.8 1.67 302.33 1.67L305.22 1.67L305.22 0.0L302.24 0.0ZM311.1 -0.15Q309.94 -0.15 309.09 0.29Q308.24 0.73 307.78 1.55Q307.33 2.36 307.33 3.47L307.33 5.88Q307.33 7.0 307.78 7.81Q308.24 8.62 309.09 9.06Q309.94 9.5 311.1 9.5Q312.26 9.5 313.11 9.06Q313.96 8.62 314.41 7.81Q314.87 7.0 314.87 5.88L314.87 3.47Q314.87 2.36 314.41 1.55Q313.96 0.73 313.11 0.29Q312.26 -0.15 311.1 -0.15ZM311.1 1.46Q312.03 1.46 312.54 1.98Q313.05 2.5 313.05 3.47L313.05 5.88Q313.05 6.87 312.54 7.38Q312.03 7.89 311.1 7.89Q310.18 7.89 309.66 7.38Q309.14 6.87 309.14 5.88L309.14 3.47Q309.14 2.5 309.66 1.98Q310.18 1.46 311.1 1.46ZM330.02 0.0L330.02 6.7L327.37 6.7L327.37 8.36L330.02 8.36L330.02 9.88Q330.02 11.05 330.77 11.73Q331.52 12.41 332.81 12.41L335.55 12.41L335.55 10.78L332.84 10.78Q332.37 10.78 332.1 10.54Q331.84 10.3 331.84 9.86L331.84 8.36L335.55 8.36L335.55 6.7L331.84 6.7L331.84 0.0L330.02 0.0ZM341.7 -0.15Q340.54 -0.15 339.69 0.29Q338.84 0.73 338.38 1.55Q337.93 2.36 337.93 3.47L337.93 5.88Q337.93 7.0 338.38 7.81Q338.84 8.62 339.69 9.06Q340.54 9.5 341.7 9.5Q342.86 9.5 343.71 9.06Q344.56 8.62 345.01 7.81Q345.47 7.0 345.47 5.88L345.47 3.47Q345.47 2.36 345.01 1.55Q344.56 0.73 343.71 0.29Q342.86 -0.15 341.7 -0.15ZM341.7 1.46Q342.63 1.46 343.14 1.98Q343.65 2.5 343.65 3.47L343.65 5.88Q343.65 6.87 343.14 7.38Q342.63 7.89 341.7 7.89Q340.78 7.89 340.26 7.38Q339.74 6.87 339.74 5.88L339.74 3.47Q339.74 2.5 340.26 1.98Q340.78 1.46 341.7 1.46ZM351.88 -0.17Q350.2 -0.17 349.2 0.81Q348.19 1.78 348.19 3.47L348.19 9.35L350.03 9.35L350.03 3.47Q350.03 2.5 350.52 1.96Q351.02 1.43 351.88 1.43Q352.77 1.43 353.27 1.96Q353.77 2.5 353.77 3.47L353.77 9.35L355.61 9.35L355.61 3.47Q355.61 1.78 354.59 0.81Q353.58 -0.17 351.88 -0.17ZM358.43 0.0L358.43 9.35L360.25 9.35L360.25 7.56L360.69 7.56L360.25 7.14Q360.25 8.26 360.91 8.89Q361.57 9.52 362.75 9.52Q364.14 9.52 364.97 8.63Q365.81 7.74 365.81 6.22L365.81 0.0L363.97 0.0L363.97 6.02Q363.97 6.94 363.48 7.43Q362.98 7.92 362.13 7.92Q361.27 7.92 360.76 7.4Q360.26 6.89 360.26 5.9L360.26 0.0L358.43 0.0ZM371.64 -0.17Q370.23 -0.17 369.38 0.78Q368.53 1.73 368.53 3.35L368.53 5.98Q368.53 7.62 369.38 8.57Q370.23 9.52 371.64 9.52Q372.79 9.52 373.47 8.88Q374.15 8.25 374.15 7.14L373.76 7.56L374.19 7.56L374.14 9.74L374.14 12.41L375.97 12.41L375.97 0.0L374.15 0.0L374.15 1.78L373.76 1.78L374.15 2.21Q374.15 1.1 373.47 0.47Q372.79 -0.17 371.64 -0.17ZM372.27 1.43Q373.13 1.43 373.63 1.96Q374.14 2.5 374.14 3.45L374.14 5.9Q374.14 6.85 373.63 7.38Q373.13 7.92 372.27 7.92Q371.36 7.92 370.85 7.4Q370.34 6.89 370.34 5.9L370.34 3.45Q370.34 2.47 370.85 1.95Q371.36 1.43 372.27 1.43ZM382.5 -0.17Q381.36 -0.17 380.5 0.28Q379.64 0.73 379.18 1.55Q378.73 2.36 378.73 3.45L378.73 5.9Q378.73 7.0 379.18 7.81Q379.64 8.62 380.5 9.07Q381.36 9.52 382.5 9.52Q383.66 9.52 384.51 9.07Q385.36 8.62 385.81 7.81Q386.27 7.0 386.27 5.9L386.27 4.23L380.49 4.23L380.49 3.45Q380.49 2.41 381.01 1.87Q381.53 1.33 382.52 1.33Q383.32 1.33 383.81 1.6Q384.3 1.89 384.42 2.43L386.24 2.43Q386.04 1.24 385.02 0.53Q384.0 -0.17 382.5 -0.17ZM384.51 5.34L384.51 5.92Q384.51 6.94 384.0 7.5Q383.49 8.06 382.5 8.06Q381.53 8.06 381.01 7.5Q380.49 6.94 380.49 5.9L380.49 5.47L384.64 5.49L384.51 5.34ZM389.33 0.0L389.33 9.35L391.1 9.35L391.1 7.56L391.54 7.56L390.98 6.46Q390.98 7.97 391.65 8.75Q392.31 9.52 393.62 9.52Q395.11 9.52 395.99 8.59Q396.86 7.67 396.86 6.05L396.86 5.42L394.98 5.42L394.98 5.9Q394.98 6.9 394.48 7.44Q393.97 7.97 393.07 7.97Q392.17 7.97 391.67 7.43Q391.17 6.89 391.17 5.9L391.17 0.0L389.33 0.0Z"/></g>
</svg>
