<svg width="187" height="50" viewBox="0 0 187 50" fill="none" xmlns="http://www.w3.org/2000/svg" role="img" aria-label="Projects">
  <g transform="translate(6.00,6.00) scale(0.14844)" fill="#0360CA"><path d="M224,64H154.67L126.93,43.2a16.12,16.12,0,0,0-9.6-3.2H72A16,16,0,0,0,56,56V72H40A16,16,0,0,0,24,88V200a16,16,0,0,0,16,16H192.89A15.13,15.13,0,0,0,208,200.89V184h16.89A15.13,15.13,0,0,0,240,168.89V80A16,16,0,0,0,224,64ZM192,200H40V88H85.33l29.87,22.4A8,8,0,0,0,120,112h72Zm32-32H208V112a16,16,0,0,0-16-16H122.67L94.93,75.2a16.12,16.12,0,0,0-9.6-3.2H72V56h45.33L147.2,78.4A8,8,0,0,0,152,80h72Z"/></g>
  <g transform="translate(53.79,33.11) scale(1,-1)" fill="#0360CA"><path d="M2.21 0.0L2.21 22.4L11.26 22.4Q13.38 22.4 14.98 21.56Q16.58 20.74 17.5 19.22Q18.43 17.7 18.43 15.62L18.43 15.17Q18.43 13.12 17.48 11.58Q16.55 10.05 14.92 9.22Q13.31 8.38 11.26 8.38L6.08 8.38L6.08 0.0L2.21 0.0ZM6.08 11.87L10.88 11.87Q12.54 11.87 13.55 12.76Q14.56 13.66 14.56 15.23L14.56 15.55Q14.56 17.12 13.56 18.02Q12.58 18.91 10.88 18.91L6.08 18.91L6.08 11.87ZM21.63 0.0L21.63 15.81L25.25 15.81L25.25 13.98L25.79 13.98Q26.15 14.98 26.98 15.42Q27.81 15.87 28.96 15.87L30.88 15.87L30.88 12.61L28.9 12.61Q27.3 12.61 26.3 11.76Q25.31 10.91 25.31 9.15L25.31 0.0L21.63 0.0ZM41.63 -0.45Q39.26 -0.45 37.39 0.52Q35.52 1.5 34.45 3.31Q33.38 5.12 33.38 7.65L33.38 8.16Q33.38 10.69 34.45 12.51Q35.52 14.34 37.39 15.3Q39.26 16.26 41.63 16.26Q44.0 16.26 45.85 15.3Q47.71 14.34 48.78 12.51Q49.86 10.69 49.86 8.16L49.86 7.65Q49.86 5.12 48.78 3.31Q47.71 1.5 45.85 0.52Q44.0 -0.45 41.63 -0.45ZM41.63 2.82Q43.65 2.82 44.93 4.11Q46.21 5.41 46.21 7.74L46.21 8.06Q46.21 10.4 44.93 11.7Q43.65 12.99 41.63 12.99Q39.62 12.99 38.34 11.7Q37.06 10.4 37.06 8.06L37.06 7.74Q37.06 5.41 38.34 4.11Q39.62 2.82 41.63 2.82ZM50.78 -6.4L50.78 -3.23L52.93 -3.23Q53.82 -3.23 53.82 -2.27L53.82 15.81L57.5 15.81L57.5 -3.01Q57.5 -4.58 56.59 -5.48Q55.68 -6.4 54.14 -6.4L50.78 -6.4ZM55.63 17.82Q54.64 17.82 53.92 18.48Q53.2 19.14 53.2 20.23Q53.2 21.31 53.92 21.96Q54.64 22.62 55.63 22.62Q56.69 22.62 57.37 21.96Q58.06 21.31 58.06 20.23Q58.06 19.14 57.37 18.48Q56.69 17.82 55.63 17.82ZM69.41 -0.45Q67.04 -0.45 65.23 0.56Q63.42 1.57 62.41 3.41Q61.41 5.25 61.41 7.71L61.41 8.1Q61.41 10.59 62.4 12.42Q63.39 14.24 65.18 15.24Q66.97 16.26 69.31 16.26Q71.61 16.26 73.34 15.24Q75.07 14.24 76.03 12.42Q76.99 10.59 76.99 8.16L76.99 6.85L65.12 6.85Q65.18 4.99 66.43 3.87Q67.68 2.75 69.5 2.75Q71.29 2.75 72.16 3.54Q73.02 4.32 73.47 5.31L76.51 3.74Q76.06 2.88 75.21 1.9Q74.37 0.93 72.96 0.24Q71.55 -0.45 69.41 -0.45ZM65.15 9.63L73.25 9.63Q73.12 11.2 72.04 12.12Q70.97 13.06 69.28 13.06Q67.52 13.06 66.46 12.12Q65.41 11.2 65.15 9.63ZM88.16 -0.45Q85.86 -0.45 84.0 0.51Q82.14 1.47 81.07 3.3Q80.0 5.12 80.0 7.68L80.0 8.13Q80.0 10.69 81.07 12.51Q82.14 14.34 84.0 15.3Q85.86 16.26 88.16 16.26Q90.43 16.26 92.05 15.46Q93.66 14.66 94.65 13.26Q95.65 11.87 95.94 10.14L92.38 9.41Q92.26 10.4 91.78 11.22Q91.3 12.03 90.42 12.51Q89.54 12.99 88.26 12.99Q86.94 12.99 85.9 12.43Q84.86 11.87 84.27 10.75Q83.68 9.63 83.68 8.06L83.68 7.74Q83.68 6.18 84.27 5.07Q84.86 3.97 85.9 3.39Q86.94 2.82 88.26 2.82Q90.21 2.82 91.21 3.82Q92.22 4.83 92.48 6.43L96.03 5.6Q95.65 3.94 94.65 2.56Q93.66 1.18 92.05 0.36Q90.43 -0.45 88.16 -0.45ZM105.63 0.0Q104.09 0.0 103.18 0.91Q102.27 1.82 102.27 3.39L102.27 12.77L98.14 12.77L98.14 15.81L102.27 15.81L102.27 20.9L105.95 20.9L105.95 15.81L110.49 15.81L110.49 12.77L105.95 12.77L105.95 4.0Q105.95 3.04 106.85 3.04L110.01 3.04L110.01 0.0L105.63 0.0ZM120.77 -0.45Q117.69 -0.45 115.71 0.9Q113.73 2.24 113.31 4.83L116.7 5.7Q116.93 4.48 117.5 3.78Q118.08 3.07 118.92 2.78Q119.77 2.5 120.77 2.5Q122.27 2.5 123.02 3.04Q123.77 3.58 123.77 4.42Q123.77 5.28 123.05 5.7Q122.33 6.11 120.86 6.4L119.87 6.56Q118.24 6.88 116.89 7.44Q115.55 8.0 114.73 8.98Q113.92 9.95 113.92 11.46Q113.92 13.76 115.63 15.0Q117.34 16.26 120.13 16.26Q122.78 16.26 124.51 15.07Q126.24 13.89 126.75 11.9L123.36 10.88Q123.1 12.22 122.24 12.78Q121.37 13.34 120.13 13.34Q118.85 13.34 118.16 12.9Q117.47 12.45 117.47 11.62Q117.47 10.78 118.17 10.36Q118.88 9.95 120.06 9.76L121.05 9.57Q122.81 9.25 124.24 8.74Q125.66 8.22 126.49 7.26Q127.33 6.3 127.33 4.67Q127.33 2.21 125.55 0.88Q123.77 -0.45 120.77 -0.45Z"/></g>
</svg>