<svg width="256" height="50" viewBox="0 0 256 50" fill="none" xmlns="http://www.w3.org/2000/svg" role="img" aria-label="Open Source">
  <g transform="translate(6.00,6.00) scale(0.14844)" fill="#0360CA"><path d="M232,64a32,32,0,1,0-40,31v17a8,8,0,0,1-8,8H96a23.84,23.84,0,0,0-8,1.38V95a32,32,0,1,0-16,0v66a32,32,0,1,0,16,0V144a8,8,0,0,1,8-8h88a24,24,0,0,0,24-24V95A32.06,32.06,0,0,0,232,64ZM64,64A16,16,0,1,1,80,80,16,16,0,0,1,64,64ZM96,192a16,16,0,1,1-16-16A16,16,0,0,1,96,192ZM200,80a16,16,0,1,1,16-16A16,16,0,0,1,200,80Z"/></g>
  <g transform="translate(54.34,33.23) scale(1,-1)" fill="#0360CA"><path d="M10.78 -0.45Q6.62 -0.45 4.15 1.87Q1.66 4.19 1.66 8.54L1.66 13.86Q1.66 18.21 4.15 20.53Q6.62 22.85 10.78 22.85Q14.98 22.85 17.44 20.53Q19.9 18.21 19.9 13.86L19.9 8.54Q19.9 4.19 17.44 1.87Q14.98 -0.45 10.78 -0.45ZM10.78 3.01Q13.28 3.01 14.67 4.46Q16.07 5.92 16.07 8.42L16.07 13.98Q16.07 16.48 14.67 17.93Q13.28 19.39 10.78 19.39Q8.32 19.39 6.92 17.93Q5.54 16.48 5.54 13.98L5.54 8.42Q5.54 5.92 6.92 4.46Q8.32 3.01 10.78 3.01ZM23.9 -6.4L23.9 15.81L27.52 15.81L27.52 13.73L28.06 13.73Q28.61 14.72 29.81 15.49Q31.01 16.26 33.25 16.26Q35.17 16.26 36.81 15.31Q38.46 14.37 39.45 12.54Q40.45 10.72 40.45 8.16L40.45 7.65Q40.45 5.09 39.45 3.26Q38.46 1.44 36.83 0.5Q35.2 -0.45 33.25 -0.45Q31.74 -0.45 30.73 -0.1Q29.73 0.26 29.1 0.83Q28.48 1.41 28.13 1.98L27.58 1.98L27.58 -6.4L23.9 -6.4ZM32.16 2.75Q34.18 2.75 35.47 4.04Q36.77 5.34 36.77 7.74L36.77 8.06Q36.77 10.5 35.45 11.78Q34.14 13.06 32.16 13.06Q30.18 13.06 28.85 11.78Q27.52 10.5 27.52 8.06L27.52 7.74Q27.52 5.34 28.85 4.04Q30.18 2.75 32.16 2.75ZM51.59 -0.45Q49.22 -0.45 47.41 0.56Q45.6 1.57 44.59 3.41Q43.59 5.25 43.59 7.71L43.59 8.1Q43.59 10.59 44.58 12.42Q45.57 14.24 47.36 15.24Q49.15 16.26 51.49 16.26Q53.79 16.26 55.52 15.24Q57.25 14.24 58.21 12.42Q59.17 10.59 59.17 8.16L59.17 6.85L47.3 6.85Q47.36 4.99 48.61 3.87Q49.86 2.75 51.68 2.75Q53.47 2.75 54.34 3.54Q55.2 4.32 55.65 5.31L58.69 3.74Q58.24 2.88 57.39 1.9Q56.55 0.93 55.14 0.24Q53.73 -0.45 51.59 -0.45ZM47.33 9.63L55.43 9.63Q55.3 11.2 54.22 12.12Q53.15 13.06 51.46 13.06Q49.7 13.06 48.64 12.12Q47.59 11.2 47.33 9.63ZM62.94 0.0L62.94 15.81L66.56 15.81L66.56 13.6L67.1 13.6Q67.52 14.5 68.61 15.3Q69.7 16.1 71.9 16.1Q73.73 16.1 75.13 15.26Q76.54 14.43 77.33 12.96Q78.11 11.49 78.11 9.47L78.11 0.0L74.43 0.0L74.43 9.18Q74.43 11.1 73.49 12.04Q72.54 12.99 70.82 12.99Q68.86 12.99 67.74 11.7Q66.62 10.4 66.62 8.0L66.62 0.0L62.94 0.0ZM98.37 -0.45Q95.81 -0.45 93.84 0.46Q91.87 1.38 90.75 3.1Q89.63 4.83 89.63 7.33L89.63 8.16L93.44 8.16L93.44 7.33Q93.44 5.12 94.78 4.03Q96.13 2.94 98.37 2.94Q100.64 2.94 101.79 3.87Q102.94 4.8 102.94 6.27Q102.94 7.26 102.4 7.88Q101.86 8.51 100.82 8.9Q99.78 9.28 98.3 9.63L97.34 9.83Q95.14 10.34 93.52 11.12Q91.9 11.9 91.04 13.15Q90.18 14.4 90.18 16.42Q90.18 18.43 91.14 19.87Q92.1 21.31 93.86 22.08Q95.62 22.85 97.98 22.85Q100.35 22.85 102.21 22.05Q104.06 21.25 105.13 19.65Q106.21 18.05 106.21 15.65L106.21 14.59L102.4 14.59L102.4 15.65Q102.4 17.02 101.85 17.86Q101.31 18.69 100.32 19.07Q99.33 19.46 97.98 19.46Q96.0 19.46 94.97 18.68Q93.95 17.92 93.95 16.51Q93.95 15.62 94.41 14.99Q94.88 14.37 95.79 13.97Q96.7 13.57 98.08 13.28L99.04 13.06Q101.34 12.54 103.07 11.76Q104.8 10.98 105.77 9.7Q106.75 8.42 106.75 6.37Q106.75 4.35 105.71 2.82Q104.67 1.28 102.8 0.42Q100.93 -0.45 98.37 -0.45ZM117.73 -0.45Q115.36 -0.45 113.48 0.52Q111.61 1.5 110.54 3.31Q109.47 5.12 109.47 7.65L109.47 8.16Q109.47 10.69 110.54 12.51Q111.61 14.34 113.48 15.3Q115.36 16.26 117.73 16.26Q120.09 16.26 121.95 15.3Q123.81 14.34 124.88 12.51Q125.95 10.69 125.95 8.16L125.95 7.65Q125.95 5.12 124.88 3.31Q123.81 1.5 121.95 0.52Q120.09 -0.45 117.73 -0.45ZM117.73 2.82Q119.74 2.82 121.02 4.11Q122.3 5.41 122.3 7.74L122.3 8.06Q122.3 10.4 121.02 11.7Q119.74 12.99 117.73 12.99Q115.71 12.99 114.43 11.7Q113.15 10.4 113.15 8.06L113.15 7.74Q113.15 5.41 114.43 4.11Q115.71 2.82 117.73 2.82ZM135.9 -0.26Q134.08 -0.26 132.67 0.56Q131.26 1.38 130.49 2.86Q129.73 4.35 129.73 6.34L129.73 15.81L133.37 15.81L133.37 6.62Q133.37 4.7 134.32 3.78Q135.26 2.85 136.99 2.85Q138.94 2.85 140.08 4.13Q141.21 5.41 141.21 7.81L141.21 15.81L144.86 15.81L144.86 0.0L141.28 0.0L141.28 2.21L140.73 2.21Q140.32 1.34 139.21 0.55Q138.11 -0.26 135.9 -0.26ZM149.53 0.0L149.53 15.81L153.15 15.81L153.15 13.98L153.69 13.98Q154.05 14.98 154.88 15.42Q155.71 15.87 156.86 15.87L158.78 15.87L158.78 12.61L156.8 12.61Q155.2 12.61 154.2 11.76Q153.21 10.91 153.21 9.15L153.21 0.0L149.53 0.0ZM169.44 -0.45Q167.14 -0.45 165.28 0.51Q163.42 1.47 162.35 3.3Q161.28 5.12 161.28 7.68L161.28 8.13Q161.28 10.69 162.35 12.51Q163.42 14.34 165.28 15.3Q167.14 16.26 169.44 16.26Q171.71 16.26 173.33 15.46Q174.94 14.66 175.93 13.26Q176.93 11.87 177.22 10.14L173.66 9.41Q173.54 10.4 173.06 11.22Q172.58 12.03 171.7 12.51Q170.82 12.99 169.54 12.99Q168.22 12.99 167.18 12.43Q166.14 11.87 165.55 10.75Q164.96 9.63 164.96 8.06L164.96 7.74Q164.96 6.18 165.55 5.07Q166.14 3.97 167.18 3.39Q168.22 2.82 169.54 2.82Q171.49 2.82 172.49 3.82Q173.5 4.83 173.76 6.43L177.31 5.6Q176.93 3.94 175.93 2.56Q174.94 1.18 173.33 0.36Q171.71 -0.45 169.44 -0.45ZM188.13 -0.45Q185.76 -0.45 183.95 0.56Q182.14 1.57 181.13 3.41Q180.13 5.25 180.13 7.71L180.13 8.1Q180.13 10.59 181.12 12.42Q182.11 14.24 183.9 15.24Q185.69 16.26 188.03 16.26Q190.33 16.26 192.06 15.24Q193.79 14.24 194.75 12.42Q195.71 10.59 195.71 8.16L195.71 6.85L183.84 6.85Q183.9 4.99 185.15 3.87Q186.4 2.75 188.22 2.75Q190.01 2.75 190.88 3.54Q191.74 4.32 192.19 5.31L195.23 3.74Q194.78 2.88 193.93 1.9Q193.09 0.93 191.68 0.24Q190.27 -0.45 188.13 -0.45ZM183.87 9.63L191.97 9.63Q191.84 11.2 190.76 12.12Q189.69 13.06 188.0 13.06Q186.24 13.06 185.18 12.12Q184.13 11.2 183.87 9.63Z"/></g>
</svg>